<svg xmlns="http://www.w3.org/2000/svg" width="200.959" height="40.494" viewBox="0 0 200 40">
<g fill="#fff">
<path d="M30.64 22.17c0-3.6-2.84-6.65-6.5-6.96l-14.1-.05c-.88 0-1.6-.7-1.6-1.6V9.4c0-.88.72-1.6 1.6-1.6H29.3V0H6.96C3.12 0 0 3.15 0 7.02v9.85c0 3.66 2.76 6.65 6.44 6.96H20.6c.88 0 1.6.75 1.6 1.66v5.58c0 .9-.7 1.6-1.6 1.6H.7v7.82h22.93c3.87 0 7-3.15 7-7.03v-11.3zM45.04 24.18h16.94v16.3h8.45V0h-8.45v16.37H45.04V0H36.6v40.5h8.44zM77.3 0h8.5v40.5h-8.5zM92.5 40.5h28.6v-7.8l-20.08-.02v-8.5h16.13v-7.8h-16.13V7.8h20.1V0H92.5zM136.3 0h-8.44v40.5h25.92v-7.8l-17.47-.02zM180.98 0h-20.9v40.5H181c7.14 0 12.96-5.82 12.96-12.97V12.96C193.94 5.8 188.12 0 180.98 0zm-12.44 7.8h11.2c3.1 0 5.63 2.53 5.63 5.63v13.7c0 3.06-2.52 5.56-5.62 5.56h-11.2V7.8zM196.03 0v.63h-1.22v3.2h-.76V.64h-1.23V0h3.23zm4.17 3.84l-.15-2.26c0-.3 0-.66-.03-1.08h-.04c-.1.34-.2.8-.32 1.15l-.7 2.13h-.8l-.68-2.2c-.07-.3-.18-.74-.27-1.08h-.03c0 .36-.02.73-.03 1.08L197 3.84h-.74l.3-3.84h1.14l.65 1.88c.1.3.16.57.26.97h.02c.1-.35.2-.68.27-.96l.66-1.9h1.1l.3 3.84h-.76zM30.64 22.17c0-3.6-2.84-6.65-6.5-6.96l-14.1-.05c-.88 0-1.6-.7-1.6-1.6V9.4c0-.88.72-1.6 1.6-1.6H29.3V0H6.96C3.12 0 0 3.15 0 7.02v9.85c0 3.66 2.76 6.65 6.44 6.96H20.6c.88 0 1.6.75 1.6 1.66v5.58c0 .9-.7 1.6-1.6 1.6H.7v7.82h22.93c3.87 0 7-3.15 7-7.03v-11.3zM45.04 24.18h16.94v16.3h8.45V0h-8.45v16.37H45.04V0H36.6v40.5h8.44zM77.3 0h8.5v40.5h-8.5zM92.5 40.5h28.6v-7.8l-20.08-.02v-8.5h16.13v-7.8h-16.13V7.8h20.1V0H92.5zM136.3 0h-8.44v40.5h25.92v-7.8l-17.47-.02zM180.98 0h-20.9v40.5H181c7.14 0 12.96-5.82 12.96-12.97V12.96C193.94 5.8 188.12 0 180.98 0zm-12.44 7.8h11.2c3.1 0 5.63 2.53 5.63 5.63v13.7c0 3.06-2.52 5.56-5.62 5.56h-11.2V7.8zM196.03 0v.63h-1.22v3.2h-.76V.64h-1.23V0h3.23zm4.17 3.84l-.15-2.26c0-.3 0-.66-.03-1.08h-.04c-.1.34-.2.8-.32 1.15l-.7 2.13h-.8l-.68-2.2c-.07-.3-.18-.74-.27-1.08h-.03c0 .36-.02.73-.03 1.08L197 3.84h-.74l.3-3.84h1.14l.65 1.88c.1.3.16.57.26.97h.02c.1-.35.2-.68.27-.96l.66-1.9h1.1l.3 3.84h-.76z" />
</g>
</svg>